# xmcd CD database file
#
# Track frame offsets:
#	150
#	16245
#	31674
#	47867
#	66881
#	83535
#	101964
#	116937
#	131943
#	150299
#	165963
#
# Disc length: 2419 seconds
#
# Revision: 1
# Processed by: cddbd v1.5.1PL2 Copyright (c) Steve Scherf et al.
# Submitted via: jetAudio 5
#
DISCID=8409710b
DTITLE=Jason Aldean - Jason Aldean
DYEAR=1900
DGENRE=
TTITLE0=Hicktown
TTITLE1=Amarillo Sky
TTITLE2=Why
TTITLE3=Even If I Wanted To
TTITLE4=Lonesome USA
TTITLE5=Asphault Cowboy
TTITLE6=I'm Just A Man
TTITLE7=You're The Love I Wanna Be In
TTITLE8=Good To Go
TTITLE9=I Believe In Ghosts
TTITLE10=She Loved Me
EXTD=
EXTT0=
EXTT1=
EXTT2=
EXTT3=
EXTT4=
EXTT5=
EXTT6=
EXTT7=
EXTT8=
EXTT9=
EXTT10=
PLAYORDER=
